<svg xmlns="http://www.w3.org/2000/svg" version="1.1" xmlns:xlink="http://www.w3.org/1999/xlink" width="1000" height="1000"><style>
    #light-icon {
      display: inline;
    }
    #dark-icon {
      display: none;
    }

    @media (prefers-color-scheme: dark) {
      #light-icon {
        display: none;
      }
      #dark-icon {
        display: inline;
      }
    }
  </style><g id="light-icon"><svg xmlns="http://www.w3.org/2000/svg" version="1.1" xmlns:xlink="http://www.w3.org/1999/xlink" width="1000" height="1000"><g clip-path="url(#SvgjsClipPath1375)"><rect width="1000" height="1000" fill="#ffffff"></rect><g transform="matrix(0.19600412915365417,0,0,0.19600412915365417,200,216.2997033804179)"><svg xmlns="http://www.w3.org/2000/svg" version="1.1" xmlns:xlink="http://www.w3.org/1999/xlink" width="3061.16" height="2894.84"><svg id="Layer_2" data-name="Layer 2" xmlns="http://www.w3.org/2000/svg" viewBox="0 0 3061.16 2894.84">
  <defs>
    <style>
      .cls-1 {
        fill: #c9b458;
      }

      .cls-1, .cls-2, .cls-3 {
        fill-rule: evenodd;
        stroke-width: 0px;
      }

      .cls-2 {
        fill: #6aaa64;
      }

      .cls-3 {
        fill: #787c7e;
      }
    </style>
  <clipPath id="SvgjsClipPath1375"><rect width="1000" height="1000" x="0" y="0" rx="350" ry="350"></rect></clipPath></defs>
  <g id="Layer_1-2" data-name="Layer 1">
    <g>
      <path class="cls-2" d="M259.6,12.24h.01c186.1-49.87,379.16,61.59,429.03,247.7l587.87,2193.95c49.87,186.11-61.6,379.17-247.7,429.04h-.01c-186.1,49.87-379.16-61.6-429.03-247.7L11.9,441.27C-37.96,255.17,73.5,62.11,259.6,12.24"></path>
      <path class="cls-1" d="M1621.47,12.18h.01c76.09,20.4,139.7,64.74,184.91,122.74l3.25,4.25,1.16,1.53c18.13,24.11,33.28,50.82,44.84,79.74l.72,1.81,1.87,4.85c5.31,13.97,9.74,28.31,13.24,42.9l585.1,2183.62c49.87,186.1-61.6,379.16-247.71,429.04h0c-186.1,49.87-379.16-61.6-429.03-247.71l-249.23-930.14-158.31,590.84-362.67-1353.48,179.36-669.4c28.2-122.47,121.43-226.17,250.69-260.81h.01c46.22-12.4,92.86-14.82,137.65-8.62l.46.06.41.06,1,.15c14.08,1.97,28.18,4.8,42.25,8.56"></path>
      <path class="cls-3" d="M2801.54,11.9h0c186.11,49.87,297.58,242.93,247.71,429.04l-496.9,1854.45-362.66-1353.49,182.81-682.28c49.87-186.12,242.93-297.58,429.04-247.71"></path>
    </g>
  </g>
</svg></svg></g></g></svg></g><g id="dark-icon"><svg xmlns="http://www.w3.org/2000/svg" version="1.1" xmlns:xlink="http://www.w3.org/1999/xlink" width="1000" height="1000"><g clip-path="url(#SvgjsClipPath1376)"><rect width="1000" height="1000" fill="#ffffff"></rect><g transform="matrix(0.19600412915365417,0,0,0.19600412915365417,200,216.2997033804179)"><svg xmlns="http://www.w3.org/2000/svg" version="1.1" xmlns:xlink="http://www.w3.org/1999/xlink" width="3061.16" height="2894.84"><svg id="Layer_2" data-name="Layer 2" xmlns="http://www.w3.org/2000/svg" viewBox="0 0 3061.16 2894.84">
  <defs>
    <style>
      .cls-1 {
        fill: #c9b458;
      }

      .cls-1, .cls-2, .cls-3 {
        fill-rule: evenodd;
        stroke-width: 0px;
      }

      .cls-2 {
        fill: #6aaa64;
      }

      .cls-3 {
        fill: #787c7e;
      }
    </style>
  <clipPath id="SvgjsClipPath1376"><rect width="1000" height="1000" x="0" y="0" rx="350" ry="350"></rect></clipPath></defs>
  <g id="Layer_1-2" data-name="Layer 1">
    <g>
      <path class="cls-2" d="M259.6,12.24h.01c186.1-49.87,379.16,61.59,429.03,247.7l587.87,2193.95c49.87,186.11-61.6,379.17-247.7,429.04h-.01c-186.1,49.87-379.16-61.6-429.03-247.7L11.9,441.27C-37.96,255.17,73.5,62.11,259.6,12.24"></path>
      <path class="cls-1" d="M1621.47,12.18h.01c76.09,20.4,139.7,64.74,184.91,122.74l3.25,4.25,1.16,1.53c18.13,24.11,33.28,50.82,44.84,79.74l.72,1.81,1.87,4.85c5.31,13.97,9.74,28.31,13.24,42.9l585.1,2183.62c49.87,186.1-61.6,379.16-247.71,429.04h0c-186.1,49.87-379.16-61.6-429.03-247.71l-249.23-930.14-158.31,590.84-362.67-1353.48,179.36-669.4c28.2-122.47,121.43-226.17,250.69-260.81h.01c46.22-12.4,92.86-14.82,137.65-8.62l.46.06.41.06,1,.15c14.08,1.97,28.18,4.8,42.25,8.56"></path>
      <path class="cls-3" d="M2801.54,11.9h0c186.11,49.87,297.58,242.93,247.71,429.04l-496.9,1854.45-362.66-1353.49,182.81-682.28c49.87-186.12,242.93-297.58,429.04-247.71"></path>
    </g>
  </g>
</svg></svg></g></g></svg></g></svg>